<svg width="24" height="24" viewBox="0 0 24 24" fill="none" xmlns="http://www.w3.org/2000/svg">
<path d="M5.14307 5H22.2859L20.5716 15.2857H6.85735L5.14307 5Z" stroke="white" stroke-width="1.5" stroke-linecap="round" stroke-linejoin="round"/>
<path d="M8.57157 21C9.20275 21 9.71443 20.4883 9.71443 19.8572C9.71443 19.226 9.20275 18.7143 8.57157 18.7143C7.94039 18.7143 7.42871 19.226 7.42871 19.8572C7.42871 20.4883 7.94039 21 8.57157 21Z" stroke="white" stroke-width="1.5" stroke-linecap="round" stroke-linejoin="round"/>
<path d="M18.8572 21C19.4884 21 20.0001 20.4883 20.0001 19.8572C20.0001 19.226 19.4884 18.7143 18.8572 18.7143C18.226 18.7143 17.7144 19.226 17.7144 19.8572C17.7144 20.4883 18.226 21 18.8572 21Z" stroke="white" stroke-width="1.5" stroke-linecap="round" stroke-linejoin="round"/>
<path d="M5.14293 5H1.71436" stroke="white" stroke-width="1.5" stroke-linecap="round" stroke-linejoin="round"/>
</svg>
